# xmcd
#
# Track frame offsets:
#	150
#	9957
#	21280
#	35568
#	47502
#	64330
#	76827
#	88676
#	103324
#	114690
#	128520
#	141740
#
# Disc length: 2042 seconds
#
# Revision: 1
# Processed by: cddbd v1.5.2PL0 Copyright (c) Steve Scherf et al.
# Submitted via: audiograbber 1.83.01
#
DISCID=a007f80c
DTITLE=Banda MM - Cumbias VOL 2
DYEAR=2000
DGENRE=Banda
TTITLE0=El Mudo
TTITLE1=La Culebra
TTITLE2=La Banda Borracha
TTITLE3=Tiburon a la Vista
TTITLE4=El Negro Africano
TTITLE5=Ay Cosita Linda Mama
TTITLE6=La Bala
TTITLE7=Agua Clara
TTITLE8=Rosa MAria
TTITLE9=El Chivirico
TTITLE10=El Hombre Aparecido
TTITLE11=Que  Se Mueran los Feos
EXTD=
EXTT0=
EXTT1=
EXTT2=
EXTT3=
EXTT4=
EXTT5=
EXTT6=
EXTT7=
EXTT8=
EXTT9=
EXTT10=
EXTT11=
PLAYORDER=
